<?xml version="1.0" encoding="UTF-8"?>
<!DOCTYPE svg PUBLIC "-//W3C//DTD SVG 1.1//EN" "http://www.w3.org/Graphics/SVG/1.1/DTD/svg11.dtd">
<svg version="1.1" xmlns="http://www.w3.org/2000/svg" xmlns:xlink="http://www.w3.org/1999/xlink" x="0" y="0" width="3000" height="3000" viewBox="0, 0, 3000, 3000">
  <g id="Layer_4" opacity="0.04">
    <path d="M1624.217,1452.821 C1624.217,1538.841 1554.484,1608.574 1468.465,1608.574 C1382.445,1608.574 1312.712,1538.841 1312.712,1452.821 C1312.712,1366.801 1382.445,1297.068 1468.465,1297.068 C1554.484,1297.068 1624.217,1366.801 1624.217,1452.821 z" fill="#000000"/>
    <g>
      <path d="M1468.472,1136.172 C1677.591,1136.172 1871.857,1166.179 2018.333,1216.605 C2194.815,1277.364 2303.324,1369.458 2303.324,1452.85 C2303.324,1539.75 2188.327,1637.588 1998.808,1700.38 C1855.526,1747.85 1666.979,1772.632 1468.472,1772.632 C1264.948,1772.632 1072.221,1749.372 927.326,1699.858 C744.007,1637.2 633.592,1538.095 633.592,1452.85 C633.592,1370.135 737.195,1278.752 911.197,1218.086 C1058.219,1166.828 1257.282,1136.172 1468.444,1136.172 z" fill-opacity="0" stroke="#000000" stroke-width="70"/>
      <path d="M1192.795,1295.424 C1297.267,1114.272 1420.306,960.975 1537.166,859.278 C1677.964,736.749 1811.952,688.763 1884.189,730.418 C1959.471,773.831 1986.774,922.331 1946.491,1117.87 C1916.065,1265.709 1843.31,1441.415 1744.14,1613.377 C1642.461,1789.686 1526.036,1945.02 1410.768,2045.773 C1264.91,2173.276 1123.896,2219.417 1050.051,2176.831 C978.395,2135.538 950.993,2000.112 985.368,1819.069 C1014.412,1666.101 1087.301,1478.345 1192.761,1295.421 z" fill-opacity="0" stroke="#000000" stroke-width="70"/>
      <path d="M1193.056,1613.84 C1088.288,1432.893 1016.958,1249.701 987.184,1097.671 C951.344,914.495 976.684,774.442 1048.856,732.666 C1124.063,689.126 1266.354,739.633 1415.643,872.19 C1528.517,972.409 1644.421,1123.163 1743.879,1294.964 C1845.849,1471.102 1922.274,1649.55 1952.005,1799.73 C1989.624,1989.776 1959.176,2134.986 1885.4,2177.694 C1813.815,2219.135 1682.819,2175.26 1543.14,2055.059 C1425.121,1953.505 1298.857,1796.585 1193.056,1613.837 z" fill-opacity="0" stroke="#000000" stroke-width="70"/>
    </g>
  </g>
</svg>
