<?xml version="1.0" encoding="UTF-8"?>
<!DOCTYPE svg PUBLIC "-//W3C//DTD SVG 1.1//EN" "http://www.w3.org/Graphics/SVG/1.1/DTD/svg11.dtd">
<svg version="1.1" xmlns="http://www.w3.org/2000/svg" xmlns:xlink="http://www.w3.org/1999/xlink" x="0" y="0" width="68" height="1000" viewBox="0, 0, 68, 1000">
  <g id="Layer_1">
    <path d="M26.441,857.873 L26.441,878.545 L17.301,878.545 L17.301,857.873 z M9.953,857.873 L9.953,878.475 Q9.953,880.338 10.885,881.287 Q11.816,882.236 13.609,882.236 L55.305,882.236 L55.305,891.377 L13.609,891.377 Q11.254,891.377 9.391,890.779 Q7.527,890.182 6.104,889.18 Q4.68,888.178 3.678,886.877 Q2.676,885.576 2.043,884.152 Q1.41,882.729 1.111,881.287 Q0.813,879.846 0.813,878.545 L0.813,857.873 z" fill="#EFE9BB"/>
    <path d="M26.441,818.85 L26.441,839.416 Q26.441,841.279 27.373,842.229 Q28.305,843.178 30.098,843.178 L55.305,843.178 L55.305,852.318 L30.098,852.318 Q27.742,852.318 25.879,851.721 Q24.016,851.123 22.592,850.121 Q21.168,849.119 20.166,847.818 Q19.164,846.518 18.531,845.094 Q17.898,843.67 17.6,842.211 Q17.301,840.752 17.301,839.486 L17.301,818.85 z" fill="#EFE9BB"/>
    <path d="M42.473,771.635 Q44.828,771.635 46.709,772.232 Q48.59,772.83 50.014,773.814 Q51.438,774.799 52.439,776.1 Q53.441,777.4 54.074,778.824 Q54.707,780.248 55.006,781.707 Q55.305,783.166 55.305,784.467 L55.305,800.955 Q55.305,802.854 54.637,805.104 Q53.969,807.354 52.439,809.27 Q50.91,811.186 48.467,812.469 Q46.023,813.752 42.473,813.752 L30.098,813.752 Q26.582,813.752 24.139,812.469 Q21.695,811.186 20.166,809.27 Q18.637,807.354 17.969,805.104 Q17.301,802.854 17.301,800.955 L17.301,784.467 Q17.301,780.951 18.566,778.49 Q19.832,776.029 21.748,774.518 Q23.664,773.006 25.914,772.32 Q28.164,771.635 30.098,771.635 z M30.168,780.775 Q28.27,780.775 27.355,781.725 Q26.441,782.674 26.441,784.467 L26.441,800.885 Q26.441,802.713 27.373,803.662 Q28.305,804.611 30.098,804.611 L42.473,804.611 Q44.266,804.611 45.215,803.662 Q46.164,802.713 46.164,800.885 L46.164,784.467 Q46.164,782.604 45.215,781.689 Q44.266,780.775 42.473,780.775 z" fill="#EFE9BB"/>
    <path d="M55.305,721.748 L55.305,730.889 L34.211,730.889 Q32.418,730.889 30.994,731.504 Q29.57,732.119 28.551,733.174 Q27.531,734.229 26.986,735.652 Q26.441,737.076 26.441,738.729 L26.441,754.725 L55.305,754.725 L55.305,763.865 L21.836,763.865 Q20.887,763.865 20.061,763.514 Q19.234,763.162 18.619,762.529 Q18.004,761.896 17.652,761.053 Q17.301,760.209 17.301,759.26 L17.301,738.658 Q17.301,736.936 17.688,735.02 Q18.074,733.104 18.936,731.223 Q19.797,729.342 21.115,727.637 Q22.434,725.932 24.314,724.613 Q26.195,723.295 28.656,722.521 Q31.117,721.748 34.211,721.748 z" fill="#EFE9BB"/>
    <path d="M26.441,680.299 L26.441,696.26 L55.305,696.26 L55.305,705.506 L26.441,705.506 L26.441,717.389 L17.301,717.389 L17.301,705.506 L4.891,705.506 L4.891,696.26 L17.301,696.26 L17.301,680.299 z" fill="#EFE9BB"/>
    <path d="M29.887,633.541 Q31.785,633.541 33.982,634.209 Q36.18,634.877 38.061,636.371 Q39.941,637.865 41.207,640.273 Q42.473,642.682 42.473,646.127 L42.473,662.615 L33.789,662.615 L33.789,646.127 Q33.789,644.264 32.646,643.244 Q31.504,642.225 29.816,642.225 Q28.023,642.225 27.004,643.367 Q25.984,644.51 25.984,646.127 L25.984,662.615 Q25.984,664.479 27.127,665.498 Q28.27,666.518 29.957,666.518 L42.719,666.518 Q44.547,666.518 45.566,665.375 Q46.586,664.232 46.586,662.545 L46.586,646.127 L55.305,646.127 L55.305,662.615 Q55.305,664.514 54.637,666.711 Q53.969,668.908 52.475,670.789 Q50.98,672.67 48.572,673.936 Q46.164,675.201 42.719,675.201 L29.887,675.201 Q27.988,675.201 25.791,674.533 Q23.594,673.865 21.713,672.371 Q19.832,670.877 18.566,668.469 Q17.301,666.061 17.301,662.615 L17.301,646.127 Q17.301,644.229 17.969,642.031 Q18.637,639.834 20.131,637.953 Q21.625,636.072 24.033,634.807 Q26.441,633.541 29.887,633.541 z" fill="#EFE9BB"/>
    <path d="M55.305,585.271 L55.305,594.412 L34.211,594.412 Q32.418,594.412 30.994,595.027 Q29.57,595.643 28.551,596.697 Q27.531,597.752 26.986,599.176 Q26.441,600.6 26.441,602.252 L26.441,618.248 L55.305,618.248 L55.305,627.389 L21.836,627.389 Q20.887,627.389 20.061,627.037 Q19.234,626.686 18.619,626.053 Q18.004,625.42 17.652,624.576 Q17.301,623.732 17.301,622.783 L17.301,602.182 Q17.301,600.459 17.688,598.543 Q18.074,596.627 18.936,594.746 Q19.797,592.865 21.115,591.16 Q22.434,589.455 24.314,588.137 Q26.195,586.818 28.656,586.045 Q31.117,585.271 34.211,585.271 z" fill="#EFE9BB"/>
    <path d="M42.473,535.561 Q44.828,535.561 46.709,536.158 Q48.59,536.756 50.014,537.74 Q51.438,538.725 52.439,540.025 Q53.441,541.326 54.074,542.75 Q54.707,544.174 55.006,545.633 Q55.305,547.092 55.305,548.393 L55.305,564.881 Q55.305,567.236 54.707,569.1 Q54.109,570.963 53.107,572.387 Q52.105,573.811 50.805,574.812 Q49.504,575.814 48.08,576.447 Q46.656,577.08 45.197,577.379 Q43.738,577.678 42.473,577.678 L30.098,577.678 Q26.582,577.678 24.139,576.395 Q21.695,575.111 20.166,573.195 Q18.637,571.279 17.969,569.029 Q17.301,566.779 17.301,564.881 L17.301,548.393 L26.441,548.393 L26.441,564.811 Q26.441,566.639 27.373,567.588 Q28.305,568.537 30.098,568.537 L42.402,568.537 Q44.266,568.537 45.215,567.605 Q46.164,566.674 46.164,564.881 L46.164,548.393 Q46.164,546.529 45.215,545.615 Q44.266,544.701 42.473,544.701 L1.234,544.701 L1.234,535.561 z" fill="#EFE9BB"/>
    <path d="M42.473,461.732 Q44.828,461.732 46.709,462.33 Q48.59,462.928 50.014,463.912 Q51.438,464.896 52.439,466.197 Q53.441,467.498 54.074,468.922 Q54.707,470.346 55.006,471.805 Q55.305,473.264 55.305,474.564 L55.305,491.053 Q55.305,493.408 54.707,495.271 Q54.109,497.135 53.107,498.559 Q52.105,499.982 50.805,500.984 Q49.504,501.986 48.08,502.619 Q46.656,503.252 45.197,503.551 Q43.738,503.85 42.473,503.85 L30.098,503.85 Q26.582,503.85 24.139,502.566 Q21.695,501.283 20.166,499.367 Q18.637,497.451 17.969,495.201 Q17.301,492.951 17.301,491.053 L17.301,474.564 L26.441,474.564 L26.441,490.982 Q26.441,492.811 27.373,493.76 Q28.305,494.709 30.098,494.709 L42.402,494.709 Q44.266,494.709 45.215,493.777 Q46.164,492.846 46.164,491.053 L46.164,474.564 Q46.164,472.701 45.215,471.787 Q44.266,470.873 42.473,470.873 L1.234,470.873 L1.234,461.732 z" fill="#EFE9BB"/>
    <path d="M29.887,412.127 Q31.785,412.127 33.982,412.795 Q36.18,413.463 38.061,414.957 Q39.941,416.451 41.207,418.859 Q42.473,421.268 42.473,424.713 L42.473,441.201 L33.789,441.201 L33.789,424.713 Q33.789,422.85 32.646,421.83 Q31.504,420.811 29.816,420.811 Q28.023,420.811 27.004,421.953 Q25.984,423.096 25.984,424.713 L25.984,441.201 Q25.984,443.064 27.127,444.084 Q28.27,445.104 29.957,445.104 L42.719,445.104 Q44.547,445.104 45.566,443.961 Q46.586,442.818 46.586,441.131 L46.586,424.713 L55.305,424.713 L55.305,441.201 Q55.305,443.1 54.637,445.297 Q53.969,447.494 52.475,449.375 Q50.98,451.256 48.572,452.521 Q46.164,453.787 42.719,453.787 L29.887,453.787 Q27.988,453.787 25.791,453.119 Q23.594,452.451 21.713,450.957 Q19.832,449.463 18.566,447.055 Q17.301,444.646 17.301,441.201 L17.301,424.713 Q17.301,422.814 17.969,420.617 Q18.637,418.42 20.131,416.539 Q21.625,414.658 24.033,413.393 Q26.441,412.127 29.887,412.127 z" fill="#EFE9BB"/>
    <path d="M17.301,360.623 Q22.117,362.17 26.793,364.244 Q31.469,366.318 35.705,369.008 Q39.941,371.697 43.545,375.02 Q47.148,378.342 49.768,382.367 Q52.387,386.393 53.881,391.121 Q55.375,395.85 55.375,401.369 Q55.375,402.318 55.023,403.162 Q54.672,404.006 54.057,404.639 Q53.441,405.271 52.615,405.623 Q51.789,405.975 50.84,405.975 L17.301,405.975 L17.301,396.834 L45.883,396.834 Q45.883,393.494 44.441,390.418 Q43,387.342 40.627,384.6 Q38.254,381.857 35.23,379.52 Q32.207,377.182 29.025,375.354 Q25.844,373.525 22.785,372.242 Q19.727,370.959 17.301,370.326 z" fill="#EFE9BB"/>
    <path d="M29.887,316.467 Q31.785,316.467 33.982,317.135 Q36.18,317.803 38.061,319.297 Q39.941,320.791 41.207,323.199 Q42.473,325.607 42.473,329.053 L42.473,345.541 L33.789,345.541 L33.789,329.053 Q33.789,327.189 32.646,326.17 Q31.504,325.15 29.816,325.15 Q28.023,325.15 27.004,326.293 Q25.984,327.436 25.984,329.053 L25.984,345.541 Q25.984,347.404 27.127,348.424 Q28.27,349.443 29.957,349.443 L42.719,349.443 Q44.547,349.443 45.566,348.301 Q46.586,347.158 46.586,345.471 L46.586,329.053 L55.305,329.053 L55.305,345.541 Q55.305,347.439 54.637,349.637 Q53.969,351.834 52.475,353.715 Q50.98,355.596 48.572,356.861 Q46.164,358.127 42.719,358.127 L29.887,358.127 Q27.988,358.127 25.791,357.459 Q23.594,356.791 21.713,355.297 Q19.832,353.803 18.566,351.395 Q17.301,348.986 17.301,345.541 L17.301,329.053 Q17.301,327.154 17.969,324.957 Q18.637,322.76 20.131,320.879 Q21.625,318.998 24.033,317.732 Q26.441,316.467 29.887,316.467 z" fill="#EFE9BB"/>
    <path d="M55.305,293.615 L55.305,297.693 Q55.305,299.662 54.637,301.895 Q53.969,304.127 52.439,306.061 Q50.91,307.994 48.467,309.26 Q46.023,310.525 42.473,310.525 L1.234,310.525 L1.234,301.385 L42.473,301.385 Q44.16,301.385 45.162,300.33 Q46.164,299.275 46.164,297.693 L46.164,293.615 z" fill="#EFE9BB"/>
    <path d="M42.473,246.4 Q44.828,246.4 46.709,246.998 Q48.59,247.596 50.014,248.58 Q51.437,249.564 52.439,250.865 Q53.441,252.166 54.074,253.59 Q54.707,255.014 55.006,256.473 Q55.305,257.932 55.305,259.232 L55.305,275.721 Q55.305,277.619 54.637,279.869 Q53.969,282.119 52.439,284.035 Q50.91,285.951 48.467,287.234 Q46.023,288.518 42.473,288.518 L30.098,288.518 Q26.582,288.518 24.139,287.234 Q21.695,285.951 20.166,284.035 Q18.637,282.119 17.969,279.869 Q17.301,277.619 17.301,275.721 L17.301,259.232 Q17.301,255.717 18.566,253.256 Q19.832,250.795 21.748,249.283 Q23.664,247.771 25.914,247.086 Q28.164,246.4 30.098,246.4 z M30.168,255.541 Q28.27,255.541 27.355,256.49 Q26.441,257.439 26.441,259.232 L26.441,275.65 Q26.441,277.479 27.373,278.428 Q28.305,279.377 30.098,279.377 L42.473,279.377 Q44.266,279.377 45.215,278.428 Q46.164,277.479 46.164,275.65 L46.164,259.232 Q46.164,257.369 45.215,256.455 Q44.266,255.541 42.473,255.541 z" fill="#EFE9BB"/>
    <path d="M42.473,196.725 Q44.828,196.725 46.709,197.322 Q48.59,197.92 50.014,198.904 Q51.437,199.889 52.439,201.189 Q53.441,202.49 54.074,203.914 Q54.707,205.338 55.006,206.779 Q55.305,208.221 55.305,209.521 L55.305,226.01 L46.164,226.01 L46.164,209.521 Q46.164,207.693 45.215,206.779 Q44.266,205.865 42.473,205.865 L30.168,205.865 Q28.27,205.865 27.355,206.797 Q26.441,207.729 26.441,209.521 L26.441,225.939 Q26.441,227.803 27.373,228.752 Q28.305,229.701 30.098,229.701 L67.187,229.701 L67.187,238.842 L30.098,238.842 Q27.742,238.842 25.879,238.244 Q24.016,237.646 22.592,236.645 Q21.168,235.643 20.166,234.342 Q19.164,233.041 18.531,231.617 Q17.898,230.193 17.6,228.734 Q17.301,227.275 17.301,226.01 L17.301,209.521 Q17.301,207.166 17.898,205.303 Q18.496,203.439 19.48,202.016 Q20.465,200.592 21.766,199.59 Q23.066,198.588 24.49,197.955 Q25.914,197.322 27.355,197.023 Q28.797,196.725 30.098,196.725 z" fill="#EFE9BB"/>
    <path d="M29.887,148.033 Q31.785,148.033 33.982,148.701 Q36.18,149.369 38.061,150.863 Q39.941,152.357 41.207,154.766 Q42.473,157.174 42.473,160.619 L42.473,177.107 L33.789,177.107 L33.789,160.619 Q33.789,158.756 32.646,157.736 Q31.504,156.717 29.816,156.717 Q28.023,156.717 27.004,157.859 Q25.984,159.002 25.984,160.619 L25.984,177.107 Q25.984,178.971 27.127,179.99 Q28.27,181.01 29.957,181.01 L42.719,181.01 Q44.547,181.01 45.566,179.867 Q46.586,178.725 46.586,177.037 L46.586,160.619 L55.305,160.619 L55.305,177.107 Q55.305,179.006 54.637,181.203 Q53.969,183.4 52.475,185.281 Q50.98,187.162 48.572,188.428 Q46.164,189.693 42.719,189.693 L29.887,189.693 Q27.988,189.693 25.791,189.025 Q23.594,188.357 21.713,186.863 Q19.832,185.369 18.566,182.961 Q17.301,180.553 17.301,177.107 L17.301,160.619 Q17.301,158.721 17.969,156.523 Q18.637,154.326 20.131,152.445 Q21.625,150.564 24.033,149.299 Q26.441,148.033 29.887,148.033 z" fill="#EFE9BB"/>
    <path d="M26.441,108.623 L26.441,129.189 Q26.441,131.053 27.373,132.002 Q28.305,132.951 30.098,132.951 L55.305,132.951 L55.305,142.092 L30.098,142.092 Q27.742,142.092 25.879,141.494 Q24.016,140.896 22.592,139.895 Q21.168,138.893 20.166,137.592 Q19.164,136.291 18.531,134.867 Q17.898,133.443 17.6,131.984 Q17.301,130.525 17.301,129.26 L17.301,108.623 z" fill="#EFE9BB"/>
  </g>
</svg>
