<?xml version="1.0" encoding="UTF-8"?>
<!DOCTYPE svg PUBLIC "-//W3C//DTD SVG 1.1//EN" "http://www.w3.org/Graphics/SVG/1.1/DTD/svg11.dtd">
<svg version="1.1" xmlns="http://www.w3.org/2000/svg" xmlns:xlink="http://www.w3.org/1999/xlink" x="0" y="0" width="340" height="32" viewBox="0, 0, 340, 32">
  <g id="Layer_1">
    <path d="M8.907,9.751 Q9.153,7.966 10.184,7.095 Q11.215,6.224 12.982,6.224 L17.106,6.224 Q20.444,6.224 22.85,8.306 Q25.256,10.389 25.256,13.278 L25.256,31 L17.106,31 L17.106,13.278 Q17.106,11.834 15.903,10.792 Q14.7,9.751 12.982,9.751 Q11.313,9.751 10.11,10.792 Q8.907,11.834 8.907,13.278 L8.907,31 L0.708,31 L0.708,1.276 L8.907,1.276 L8.907,9.751 z" fill-opacity="0" stroke="#BFD336" stroke-width="0.75"/>
    <path d="M51.38,20.376 L35.031,20.376 L35.031,23.903 Q35.031,25.348 36.234,26.41 Q37.437,27.473 39.106,27.473 L43.23,27.473 Q47.305,27.473 47.305,23.903 L51.38,23.903 Q50.447,31 43.23,31 L35.031,31 Q31.693,31 29.263,28.918 Q26.832,26.835 26.832,23.903 L26.832,13.278 Q26.832,10.389 29.263,8.306 Q31.693,6.224 35.031,6.224 L43.23,6.224 Q46.568,6.224 48.974,8.306 Q51.38,10.389 51.38,13.278 z M35.031,16.848 L43.23,16.848 L43.23,13.278 Q43.23,11.834 42.027,10.792 Q40.824,9.751 39.106,9.751 Q37.437,9.751 36.234,10.792 Q35.031,11.834 35.031,13.278 z" fill-opacity="0" stroke="#BFD336" stroke-width="0.75"/>
    <path d="M52.909,31 L52.909,1.276 L61.108,1.276 L61.108,31 z" fill-opacity="0" stroke="#BFD336" stroke-width="0.75"/>
    <path d="M62.988,31 L62.988,1.276 L71.187,1.276 L71.187,31 z" fill-opacity="0" stroke="#BFD336" stroke-width="0.75"/>
    <path d="M80.94,6.224 L89.139,6.224 Q92.477,6.224 94.883,8.306 Q97.289,10.389 97.289,13.278 L97.289,23.903 Q97.289,26.793 94.883,28.896 Q92.477,31 89.139,31 L80.94,31 Q77.602,31 75.172,28.918 Q72.741,26.835 72.741,23.903 L72.741,13.278 Q72.741,10.389 75.172,8.306 Q77.602,6.224 80.94,6.224 z M80.94,13.278 L80.94,23.903 Q80.94,25.348 82.143,26.41 Q83.346,27.473 85.015,27.473 Q86.733,27.473 87.936,26.41 Q89.139,25.348 89.139,23.903 L89.139,13.278 Q89.139,11.834 87.936,10.792 Q86.733,9.751 85.015,9.751 Q83.346,9.751 82.143,10.792 Q80.94,11.834 80.94,13.278 z" fill-opacity="0" stroke="#BFD336" stroke-width="0.75"/>
    <path d="M137.597,16.848 L137.597,13.278 Q137.597,11.834 136.394,10.792 Q135.191,9.751 133.473,9.751 L129.398,9.751 Q125.765,9.751 125.323,13.278 L121.199,13.278 Q122.181,6.224 129.398,6.224 L137.597,6.224 Q140.935,6.224 143.341,8.306 Q145.746,10.389 145.746,13.278 L145.746,31 L137.597,31 L137.597,27.473 Q137.106,31 133.473,31 L129.398,31 Q126.059,31 123.629,28.918 Q121.199,26.835 121.199,23.903 Q121.199,21.013 123.629,18.931 Q126.059,16.848 129.398,16.848 z M137.597,20.376 L133.473,20.376 Q131.804,20.376 130.601,21.417 Q129.398,22.458 129.398,23.903 Q129.398,25.348 130.601,26.41 Q131.804,27.473 133.473,27.473 Q135.191,27.473 136.394,26.41 Q137.597,25.348 137.597,23.903 z" fill-opacity="0" stroke="#BFD336" stroke-width="0.75"/>
    <path d="M171.918,31 L163.769,31 L163.769,13.278 Q163.769,11.834 162.566,10.792 Q161.363,9.751 159.645,9.751 Q157.975,9.751 156.773,10.792 Q155.57,11.834 155.57,13.278 L155.57,31 L147.371,31 L147.371,6.224 L155.57,6.224 L155.57,9.751 Q155.815,7.966 156.846,7.095 Q157.877,6.224 159.645,6.224 L163.769,6.224 Q167.942,6.224 169.905,8.731 Q170.887,7.456 172.409,6.84 Q173.931,6.224 176.042,6.224 L180.117,6.224 Q183.456,6.224 185.886,8.306 Q188.316,10.389 188.316,13.278 L188.316,31 L180.117,31 L180.117,13.278 Q180.117,11.876 178.914,10.814 Q177.711,9.751 176.042,9.751 Q174.373,9.751 173.146,10.792 Q171.918,11.834 171.918,13.278 z" fill-opacity="0" stroke="#BFD336" stroke-width="0.75"/>
    <path d="M212.303,6.086 L220.452,6.086 L220.452,18.75 Q220.452,23.723 216.353,27.292 Q212.253,30.862 206.509,30.862 L195.905,30.862 L195.905,6.086 L204.104,6.086 L204.104,27.335 L208.179,27.335 Q209.897,27.335 211.1,26.272 Q212.303,25.21 212.303,23.765 z" fill-opacity="0" stroke="#BFD336" stroke-width="0.75"/>
    <path d="M246.055,20.238 L229.706,20.238 L229.706,23.765 Q229.706,25.21 230.909,26.272 Q232.112,27.335 233.781,27.335 L237.905,27.335 Q241.98,27.335 241.98,23.765 L246.055,23.765 Q245.122,30.862 237.905,30.862 L229.706,30.862 Q226.368,30.862 223.937,28.78 Q221.507,26.697 221.507,23.765 L221.507,13.141 Q221.507,10.251 223.937,8.168 Q226.368,6.086 229.706,6.086 L237.905,6.086 Q241.243,6.086 243.649,8.168 Q246.055,10.251 246.055,13.141 z M229.706,16.71 L237.905,16.71 L237.905,13.141 Q237.905,11.696 236.702,10.655 Q235.499,9.613 233.781,9.613 Q232.112,9.613 230.909,10.655 Q229.706,11.696 229.706,13.141 z" fill-opacity="0" stroke="#BFD336" stroke-width="0.75"/>
    <path d="M267.603,13.141 L263.528,13.141 Q262.988,9.613 259.65,9.613 Q257.489,9.613 256.409,10.357 Q255.329,11.101 255.329,12.546 Q255.329,14.076 261.27,16.838 Q266.13,19.09 266.867,20.578 Q267.603,22.065 267.603,23.765 Q267.603,26.697 265.197,28.78 Q262.792,30.862 259.404,30.862 L255.329,30.862 Q247.13,30.862 247.13,23.765 L251.254,23.765 Q251.745,27.335 255.084,27.335 Q257.293,27.335 258.373,26.591 Q259.453,25.847 259.453,24.36 Q259.453,22.873 253.513,20.11 Q248.652,17.858 247.891,16.371 Q247.13,14.883 247.13,13.183 Q247.13,10.251 249.561,8.168 Q251.991,6.086 255.329,6.086 L259.404,6.086 Q267.112,6.086 267.603,13.141 z" fill-opacity="0" stroke="#BFD336" stroke-width="0.75"/>
    <path d="M293.178,20.238 L276.83,20.238 L276.83,23.765 Q276.83,25.21 278.032,26.272 Q279.235,27.335 280.904,27.335 L285.028,27.335 Q289.103,27.335 289.103,23.765 L293.178,23.765 Q292.245,30.862 285.028,30.862 L276.83,30.862 Q273.491,30.862 271.061,28.78 Q268.631,26.697 268.631,23.765 L268.631,13.141 Q268.631,10.251 271.061,8.168 Q273.491,6.086 276.83,6.086 L285.028,6.086 Q288.367,6.086 290.772,8.168 Q293.178,10.251 293.178,13.141 z M276.83,16.71 L285.028,16.71 L285.028,13.141 Q285.028,11.696 283.826,10.655 Q282.623,9.613 280.904,9.613 Q279.235,9.613 278.032,10.655 Q276.83,11.696 276.83,13.141 z" fill-opacity="0" stroke="#BFD336" stroke-width="0.75"/>
    <path d="M294.393,30.862 L294.393,1.138 L302.592,1.138 L302.592,30.862 z" fill-opacity="0" stroke="#BFD336" stroke-width="0.75"/>
    <path d="M313.453,30.862 L313.453,6.086 L321.651,6.086 L321.651,9.613 Q321.897,7.828 322.928,6.957 Q323.959,6.086 325.726,6.086 L329.85,6.086 Q333.189,6.086 335.594,8.168 Q338,10.251 338,13.141 L338,30.862 L329.85,30.862 L329.85,13.141 Q329.85,11.696 328.647,10.655 Q327.445,9.613 325.726,9.613 Q324.057,9.613 322.854,10.655 Q321.651,11.696 321.651,13.141 L321.651,30.862 z" fill-opacity="0" stroke="#BFD336" stroke-width="0.75"/>
    <path d="M303.935,1 L311.948,1 L311.948,4.497 L303.935,4.497 L303.935,1 z" fill-opacity="0" stroke="#BFD336" stroke-width="0.75"/>
    <path d="M303.935,5.906 L311.948,5.906 L311.948,30.47 L303.935,30.47 L303.935,5.906 z" fill-opacity="0" stroke="#BFD336" stroke-width="0.75"/>
    <path d="M105.257,1.392 L113.27,1.392 L113.27,4.889 L105.257,4.889 L105.257,1.392 z" fill-opacity="0" stroke="#BFD336" stroke-width="0.75"/>
    <path d="M105.257,6.298 L113.27,6.298 L113.27,30.862 L105.257,30.862 L105.257,6.298 z" fill-opacity="0" stroke="#BFD336" stroke-width="0.75"/>
  </g>
</svg>
