<?xml version="1.0" encoding="UTF-8"?>
<!DOCTYPE svg PUBLIC "-//W3C//DTD SVG 1.1//EN" "http://www.w3.org/Graphics/SVG/1.1/DTD/svg11.dtd">
<svg version="1.1" xmlns="http://www.w3.org/2000/svg" xmlns:xlink="http://www.w3.org/1999/xlink" x="0" y="0" width="50" height="50" viewBox="0, 0, 50, 50">
  <defs>
    <linearGradient id="Gradient_1" gradientUnits="userSpaceOnUse" x1="25" y1="41.301" x2="25" y2="6.914">
      <stop offset="0" stop-color="#367180"/>
      <stop offset="1" stop-color="#C0D245"/>
    </linearGradient>
  </defs>
  <g id="Layer_1">
    <path d="M38.931,6.914 L38.931,15.379 L49.818,15.379 L49.818,21.613 L38.931,21.613 L38.931,41.301 L32.624,41.301 L32.624,21.613 L28.725,21.613 L28.646,21.805 Q27.231,24.995 25.397,27.884 Q23.562,30.774 21.296,33.232 Q19.03,35.69 16.284,37.476 Q13.539,39.263 10.313,40.282 Q7.088,41.301 3.323,41.301 Q2.676,41.301 2.1,41.061 Q1.525,40.822 1.093,40.402 Q0.661,39.982 0.422,39.419 Q0.182,38.855 0.182,38.208 L0.182,15.331 L6.417,15.331 L6.417,34.826 Q8.695,34.827 10.793,33.843 Q12.891,32.86 14.762,31.242 Q16.632,29.623 18.227,27.561 Q19.822,25.498 21.069,23.328 Q22.315,21.158 23.191,19.072 Q24.066,16.985 24.498,15.331 L31.116,15.331 L31.099,15.379 L32.624,15.379 L32.624,6.914 L38.931,6.914 z" fill="url(#Gradient_1)"/>
  </g>
</svg>
